<svg width="992" height="434" viewBox="0 0 992 434" fill="none" xmlns="http://www.w3.org/2000/svg">
<g clip-path="url(#clip0_2_5)">
<path d="M285.378 188.193C285.012 188.681 284.462 188.498 283.974 188.498C277.137 188.498 270.36 188.498 263.523 188.559C262.058 188.559 261.081 188.01 260.105 186.972C251.07 177.024 240.814 168.662 229.215 161.827C226.712 160.362 226.773 160.301 228.666 158.043C229.887 156.578 231.23 155.174 232.512 153.709C234.221 151.756 234.221 151.451 231.84 150.108C223.416 145.409 214.564 141.503 205.346 138.512C187.887 132.836 170 130.883 151.747 132.531C131.541 134.301 112.433 139.916 94.7907 150.047C94.3633 150.292 93.936 150.536 93.4476 150.78C92.1657 151.451 92.2267 152.245 93.2035 153.16C94.6686 154.564 96.0726 156.029 97.5378 157.493C99.6133 159.63 99.6133 160.057 96.9883 161.461C89.1133 165.672 82.0319 170.921 75.4389 176.841C51.936 198.141 37.3459 224.385 33.1337 255.817C27.6395 296.159 38.0785 332.107 65.4883 362.501C83.8633 382.886 106.573 396.557 133.616 402.416C184.407 413.402 232.39 394.848 262.058 360.487C266.576 355.238 270.666 349.684 274.206 343.703C275.244 341.994 276.343 341.323 278.358 341.384C282.326 341.567 286.294 341.445 290.262 341.445C290.75 341.445 291.299 341.384 291.849 341.933C291.727 342.971 290.994 343.825 290.445 344.741C268.285 380.262 237.151 403.515 196.25 413.097C170.916 419.017 145.52 418.834 120.613 410.717C89.6017 400.646 63.4738 383.313 44.2442 356.642C29.2267 335.891 19.7645 312.699 17.0174 287.248C12.1337 241.657 25.5639 201.864 57.2471 168.54C71.7761 153.282 88.9912 141.93 108.526 134.057C112.189 132.592 112.25 132.348 109.686 129.296C95.218 111.536 80.811 93.7756 66.343 76.0152C65.061 74.4283 63.779 72.8415 62.6802 71.1936C61.2761 69.0575 61.154 66.7993 62.4971 64.6021C63.1686 63.4425 63.9011 62.3439 64.6947 61.3064C74.0959 49.1609 83.4971 37.0155 92.8372 24.809C96.3168 20.2316 100.712 18.0954 106.451 18.0954C142.59 18.1565 178.669 17.241 214.808 16.9358C217.983 16.9358 221.096 16.8138 224.27 16.6917C229.581 16.4476 233.733 18.4616 236.724 22.917C245.515 36.039 254.305 49.0999 263.096 62.1608C263.645 63.0153 264.134 63.9308 264.622 64.7852C265.66 66.7383 265.538 68.7523 264.439 70.6443C263.645 71.987 262.791 73.2077 261.875 74.4283C248.384 92.616 234.831 110.865 221.34 129.052C217.25 134.545 217.799 133.569 223.11 135.888C237.212 142.052 249.849 150.536 261.448 160.545C269.933 167.869 277.503 176.169 283.974 185.324C284.523 186.057 285.012 186.85 285.439 187.643C285.439 187.765 285.378 188.01 285.378 188.193ZM100.407 74.4894C93.5697 74.4894 86.7936 74.4894 79.9564 74.4894C79.2238 74.4894 78.5523 74.4894 77.8197 74.5504C77.0872 74.6114 76.7209 75.0997 77.1482 75.8321C77.3314 76.1983 77.6366 76.5034 77.8808 76.8086C91.6162 93.7146 105.352 110.56 119.026 127.465C120.369 129.113 121.712 129.541 123.788 128.869C128.183 127.527 132.64 126.489 137.096 125.696C139.233 125.329 139.416 124.963 138.927 122.827C138.805 122.339 138.683 121.85 138.561 121.362C134.166 106.898 129.709 92.4329 125.314 77.9682C124.337 74.7945 124.032 74.5504 120.552 74.5504C113.837 74.4894 107.122 74.4894 100.407 74.4894ZM250.276 75.2218C250.154 74.7335 249.849 74.4894 249.421 74.4894C248.811 74.4283 248.201 74.4283 247.59 74.4283C235.32 74.4283 222.988 74.4283 210.718 74.4894C207.544 74.4894 207.238 74.6725 206.14 77.7851C204.491 82.4846 202.965 87.1841 201.378 91.9446C198.02 101.832 194.602 111.719 191.244 121.606C189.901 125.573 189.901 125.635 194.113 126.611C198.081 127.527 202.049 128.442 205.895 129.663C209.436 130.761 209.558 130.7 211.756 127.771C218.715 118.372 225.674 109.034 232.634 99.6347C238.128 92.1888 243.622 84.8038 249.116 77.3579C249.544 76.6255 250.215 76.0762 250.276 75.2218ZM165.177 65.9448C165.177 66.0059 165.177 66.0059 165.177 65.9448C174.212 66.0059 183.247 66.0059 192.343 65.9448C193.015 65.9448 193.869 66.25 194.174 65.3956C194.419 64.7242 193.747 64.297 193.442 63.8087C193.137 63.3815 192.831 63.0153 192.465 62.6491C183.674 52.0295 174.823 41.3488 166.032 30.7292C163.529 27.6775 163.346 27.6775 161.026 30.9123C153.151 41.776 145.337 52.6398 137.462 63.5646C137.218 63.8697 136.974 64.1749 136.73 64.5411C136.241 65.3345 136.424 65.8838 137.401 66.0059C138.012 66.0669 138.622 66.0059 139.233 66.0059C147.901 65.9448 156.57 65.9448 165.177 65.9448ZM174.09 26.4569C174.273 26.8841 174.334 27.2503 174.517 27.4334C183.674 38.4803 192.77 49.5271 201.927 60.574C203.27 62.2219 203.759 62.1608 204.735 60.2688C210.352 49.4661 215.968 38.6634 221.584 27.7996C222.561 25.9076 222.317 25.4804 220.241 25.3583C219.936 25.3583 219.631 25.3583 219.326 25.3583C205.407 25.8466 191.488 25.6024 177.57 25.7855C176.41 25.7245 175.311 25.7245 174.09 26.4569ZM131.174 26.1517C127.145 26.2738 123.055 26.701 119.026 26.5179C115.974 26.3958 112.921 26.4569 109.869 26.5789C108.282 26.64 108.16 27.0062 108.77 28.471C108.953 28.8371 109.137 29.2033 109.381 29.5085C114.936 39.3958 120.552 49.283 126.108 59.2313C127.756 62.1608 127.939 62.1608 129.892 59.4754C129.953 59.4144 130.015 59.2923 130.076 59.2313C137.523 48.9778 144.971 38.6634 152.419 28.4099C152.663 28.1048 152.968 27.7996 153.151 27.4334C153.456 26.762 153.334 26.2128 152.48 26.1517C151.991 26.0907 151.442 26.1517 150.953 26.1517C144.421 26.1517 137.767 26.1517 131.174 26.1517ZM165.727 114.099C174.578 114.221 182.148 106.959 182.27 98.353C182.392 89.1371 174.945 81.325 165.971 81.2029C157.241 81.0809 149.488 88.5878 149.305 97.3155C149.122 106.776 156.265 114.038 165.727 114.099Z" fill="#F3A75C"/>
<path d="M49.1687 87.6724C50.8169 95.4235 53.2588 102.625 58.814 108.423C64.3082 114.282 71.3285 117.212 78.9594 119.043C78.5931 120.142 77.8605 120.081 77.128 120.264C63.2704 123.437 54.907 132.165 51.2442 145.714C50.6948 147.667 50.5117 149.681 49.657 151.573C49.657 151.634 49.4739 151.634 49.0466 151.695C47.7035 144.005 45.4448 136.62 39.8285 130.761C34.2123 124.841 27.0088 122.095 19.2559 119.897C24.2617 118.311 29.2064 117.09 33.5407 114.16C38.0582 111.109 41.4157 107.142 43.8576 102.381C46.2995 97.8037 47.6425 92.7991 49.1687 87.6724Z" fill="#F3A75C"/>
<path d="M300.457 84.3156C302.471 103.175 313.032 113.428 330.613 117.395C311.994 120.813 303.448 133.08 300.518 150.536C299.541 149.62 299.541 148.644 299.419 147.789C297.16 132.714 288.552 123.254 273.962 119.165C273.108 118.921 272.192 118.677 271.337 118.433C271.154 118.372 271.032 118.189 270.422 117.822C273.108 117.029 275.55 116.358 277.869 115.564C280.372 114.71 282.692 113.428 284.89 111.902C287.087 110.376 288.98 108.606 290.689 106.531C292.398 104.456 293.741 102.259 294.962 99.8789C296.122 97.4986 297.038 94.9963 297.893 92.4939C298.747 90.1137 298.869 87.4283 300.457 84.3156Z" fill="#F3A75C"/>
<path d="M284.686 20.8826C285.968 24.9718 287.311 28.8778 290.302 31.9905C293.293 35.0421 297.017 36.751 301.657 38.0937C298.604 39.7416 295.796 40.1688 293.538 41.8777C291.279 43.5256 289.509 45.5397 288.105 47.981C286.639 50.4223 286.029 53.2298 284.747 55.9152C278.948 41.9388 279.375 44.197 268.325 38.643C270.889 37.2393 273.698 36.5679 275.895 34.859C278.093 33.1501 279.863 31.075 281.267 28.6947C282.671 26.2534 283.282 23.446 284.686 20.8826Z" fill="#F3A75C"/>
<path d="M157.119 97.7427C157.119 93.0432 161.026 89.2592 165.727 89.3202C170.488 89.3813 174.151 93.1043 174.151 97.9258C174.09 102.686 170.305 106.653 165.788 106.653C161.27 106.653 157.119 102.381 157.119 97.7427Z" fill="#F3A75C"/>
</g>
<path d="M143.953 283.674L167.312 226.926H202.352V229.274H199.559C197.02 229.274 194.988 229.719 193.465 230.607C192.407 231.2 191.561 232.194 190.926 233.591C190.46 234.606 190.228 237.251 190.228 241.525V298.273C190.228 302.674 190.46 305.425 190.926 306.525C191.391 307.626 192.343 308.599 193.782 309.445C195.221 310.249 197.146 310.651 199.559 310.651H202.352V313H157.41V310.651H160.203C162.742 310.651 164.773 310.207 166.297 309.318C167.355 308.726 168.201 307.71 168.836 306.271C169.301 305.256 169.534 302.59 169.534 298.273V234.479L136.526 313H135.003L101.487 235.051V295.671C101.487 299.903 101.593 302.505 101.805 303.479C102.355 305.594 103.54 307.329 105.359 308.684C107.221 309.995 110.12 310.651 114.056 310.651V313H84.6025V310.651H85.4912C87.3955 310.694 89.1729 310.397 90.8232 309.763C92.4736 309.086 93.722 308.197 94.5684 307.097C95.4147 305.996 96.0706 304.452 96.5361 302.463C96.6208 301.997 96.6631 299.839 96.6631 295.988V241.525C96.6631 237.167 96.4303 234.458 95.9648 233.4C95.4993 232.3 94.5472 231.348 93.1084 230.544C91.6696 229.698 89.7441 229.274 87.332 229.274H84.6025V226.926H119.769L143.953 283.674Z" fill="#F3A75C"/>
<path d="M262.591 267.36C270.758 269.265 276.492 271.571 279.793 274.279C284.533 278.13 286.902 283.124 286.902 289.26C286.902 295.734 284.3 301.088 279.095 305.319C272.705 310.44 263.416 313 251.229 313H207.493V310.651C211.471 310.651 214.158 310.292 215.555 309.572C216.993 308.811 217.988 307.837 218.538 306.652C219.131 305.467 219.427 302.548 219.427 297.893V242.033C219.427 237.378 219.131 234.458 218.538 233.273C217.988 232.046 216.993 231.073 215.555 230.354C214.116 229.634 211.429 229.274 207.493 229.274V226.926H248.753C258.613 226.926 265.595 227.814 269.7 229.592C273.805 231.327 277.042 233.951 279.412 237.463C281.782 240.933 282.967 244.636 282.967 248.571C282.967 252.718 281.465 256.421 278.46 259.68C275.455 262.896 270.166 265.456 262.591 267.36ZM239.485 265.646C245.494 265.646 249.917 264.969 252.752 263.615C255.63 262.261 257.83 260.357 259.354 257.902C260.877 255.448 261.639 252.316 261.639 248.508C261.639 244.699 260.877 241.589 259.354 239.177C257.872 236.722 255.735 234.86 252.942 233.591C250.149 232.321 245.664 231.708 239.485 231.75V265.646ZM239.485 270.598V298.21L239.422 301.384C239.422 303.669 239.993 305.404 241.136 306.589C242.321 307.731 244.056 308.303 246.341 308.303C249.726 308.303 252.837 307.562 255.672 306.081C258.549 304.558 260.75 302.378 262.273 299.543C263.797 296.665 264.559 293.47 264.559 289.958C264.559 285.938 263.628 282.341 261.766 279.167C259.904 275.951 257.343 273.708 254.085 272.438C250.826 271.169 245.96 270.555 239.485 270.598Z" fill="#F3A75C"/>
<path d="M381.8 267.36C389.967 269.265 395.701 271.571 399.002 274.279C403.742 278.13 406.111 283.124 406.111 289.26C406.111 295.734 403.509 301.088 398.304 305.319C391.914 310.44 382.625 313 370.438 313H326.702V310.651C330.68 310.651 333.367 310.292 334.764 309.572C336.202 308.811 337.197 307.837 337.747 306.652C338.34 305.467 338.636 302.548 338.636 297.893V242.033C338.636 237.378 338.34 234.458 337.747 233.273C337.197 232.046 336.202 231.073 334.764 230.354C333.325 229.634 330.638 229.274 326.702 229.274V226.926H367.962C377.822 226.926 384.804 227.814 388.909 229.592C393.014 231.327 396.251 233.951 398.621 237.463C400.991 240.933 402.176 244.636 402.176 248.571C402.176 252.718 400.674 256.421 397.669 259.68C394.664 262.896 389.375 265.456 381.8 267.36ZM358.694 265.646C364.703 265.646 369.126 264.969 371.961 263.615C374.839 262.261 377.039 260.357 378.562 257.902C380.086 255.448 380.848 252.316 380.848 248.508C380.848 244.699 380.086 241.589 378.562 239.177C377.081 236.722 374.944 234.86 372.151 233.591C369.358 232.321 364.873 231.708 358.694 231.75V265.646ZM358.694 270.598V298.21L358.631 301.384C358.631 303.669 359.202 305.404 360.345 306.589C361.53 307.731 363.265 308.303 365.55 308.303C368.935 308.303 372.046 307.562 374.881 306.081C377.758 304.558 379.959 302.378 381.482 299.543C383.006 296.665 383.768 293.47 383.768 289.958C383.768 285.938 382.837 282.341 380.975 279.167C379.113 275.951 376.552 273.708 373.294 272.438C370.035 271.169 365.169 270.555 358.694 270.598Z" fill="#0A0A0A"/>
<path d="M445.213 273.771V297.893C445.213 302.548 445.488 305.489 446.038 306.716C446.631 307.901 447.646 308.853 449.085 309.572C450.524 310.292 453.211 310.651 457.146 310.651V313H413.094V310.651C417.072 310.651 419.759 310.292 421.155 309.572C422.594 308.811 423.589 307.837 424.139 306.652C424.731 305.467 425.027 302.548 425.027 297.893V242.033C425.027 237.378 424.731 234.458 424.139 233.273C423.589 232.046 422.594 231.073 421.155 230.354C419.716 229.634 417.029 229.274 413.094 229.274V226.926H453.084C463.494 226.926 471.111 227.645 475.936 229.084C480.76 230.523 484.695 233.189 487.742 237.082C490.789 240.933 492.312 245.461 492.312 250.666C492.312 257.014 490.027 262.261 485.457 266.408C482.537 269.032 478.453 271 473.206 272.312L493.899 301.447C496.608 305.214 498.533 307.562 499.676 308.493C501.411 309.805 503.421 310.524 505.706 310.651V313H478.602L450.862 273.771H445.213ZM445.213 231.56V269.265H448.831C454.713 269.265 459.114 268.736 462.034 267.678C464.954 266.577 467.239 264.631 468.89 261.838C470.582 259.003 471.429 255.321 471.429 250.793C471.429 244.234 469.884 239.388 466.795 236.257C463.748 233.125 458.818 231.56 452.005 231.56H445.213Z" fill="#0A0A0A"/>
<path d="M554.837 225.72C568.548 225.212 579.677 229.211 588.226 237.717C596.816 246.223 601.111 256.866 601.111 269.646C601.111 280.563 597.916 290.17 591.526 298.464C583.063 309.466 571.108 314.968 555.662 314.968C540.174 314.968 528.198 309.72 519.734 299.226C513.048 290.931 509.705 281.092 509.705 269.709C509.705 256.929 514.043 246.286 522.718 237.78C531.435 229.232 542.142 225.212 554.837 225.72ZM555.599 229.782C547.728 229.782 541.74 233.802 537.635 241.843C534.292 248.444 532.62 257.924 532.62 270.28C532.62 284.965 535.201 295.819 540.364 302.844C543.961 307.753 548.997 310.207 555.472 310.207C559.83 310.207 563.47 309.149 566.39 307.033C570.114 304.325 573.012 300.008 575.086 294.084C577.16 288.117 578.196 280.352 578.196 270.788C578.196 259.405 577.138 250.899 575.022 245.271C572.907 239.6 570.198 235.601 566.897 233.273C563.639 230.946 559.873 229.782 555.599 229.782Z" fill="#0A0A0A"/>
<path d="M687.82 226.926V250.222H685.535C684.181 244.847 682.679 240.996 681.028 238.669C679.378 236.299 677.114 234.416 674.236 233.02C672.628 232.258 669.814 231.877 665.794 231.877H659.383V298.273C659.383 302.674 659.616 305.425 660.081 306.525C660.589 307.626 661.541 308.599 662.938 309.445C664.376 310.249 666.323 310.651 668.777 310.651H671.634V313H626.565V310.651H629.422C631.919 310.651 633.929 310.207 635.452 309.318C636.552 308.726 637.42 307.71 638.055 306.271C638.52 305.256 638.753 302.59 638.753 298.273V231.877H632.532C626.735 231.877 622.524 233.104 619.9 235.559C616.219 238.986 613.891 243.874 612.918 250.222H610.506V226.926H687.82Z" fill="#0A0A0A"/>
<path d="M728.064 271.613V298.273C728.064 302.674 728.297 305.425 728.763 306.525C729.271 307.626 730.223 308.599 731.619 309.445C733.058 310.249 734.983 310.651 737.396 310.651H740.252V313H695.247V310.651H698.104C700.6 310.651 702.61 310.207 704.134 309.318C705.234 308.726 706.08 307.71 706.673 306.271C707.138 305.256 707.371 302.59 707.371 298.273V241.652C707.371 237.251 707.138 234.501 706.673 233.4C706.207 232.3 705.255 231.348 703.816 230.544C702.42 229.698 700.516 229.274 698.104 229.274H695.247V226.926H740.252V229.274H737.396C734.899 229.274 732.889 229.719 731.365 230.607C730.265 231.2 729.397 232.216 728.763 233.654C728.297 234.67 728.064 237.336 728.064 241.652V266.027H758.47V241.652C758.47 237.251 758.237 234.501 757.771 233.4C757.306 232.3 756.354 231.348 754.915 230.544C753.476 229.698 751.551 229.274 749.139 229.274H746.346V226.926H791.287V229.274H788.494C785.955 229.274 783.945 229.719 782.464 230.607C781.364 231.2 780.496 232.216 779.861 233.654C779.396 234.67 779.163 237.336 779.163 241.652V298.273C779.163 302.674 779.396 305.425 779.861 306.525C780.327 307.626 781.279 308.599 782.718 309.445C784.157 310.249 786.082 310.651 788.494 310.651H791.287V313H746.346V310.651H749.139C751.678 310.651 753.688 310.207 755.169 309.318C756.269 308.726 757.137 307.71 757.771 306.271C758.237 305.256 758.47 302.59 758.47 298.273V271.613H728.064Z" fill="#0A0A0A"/>
<path d="M829.119 231.877V266.916H830.833C836.292 266.916 840.249 265.202 842.703 261.774C845.158 258.347 846.723 253.29 847.4 246.604H849.812V291.672H847.4C846.893 286.763 845.813 282.743 844.163 279.611C842.555 276.48 840.672 274.385 838.514 273.327C836.355 272.227 833.224 271.677 829.119 271.677V295.925C829.119 300.664 829.31 303.563 829.69 304.621C830.114 305.679 830.875 306.547 831.976 307.224C833.076 307.901 834.853 308.239 837.308 308.239H842.449C850.49 308.239 856.922 306.377 861.746 302.653C866.613 298.929 870.104 293.259 872.22 285.642H874.568L870.696 313H796.302V310.651H799.158C801.655 310.651 803.665 310.207 805.188 309.318C806.289 308.726 807.135 307.71 807.728 306.271C808.193 305.256 808.426 302.59 808.426 298.273V241.652C808.426 237.759 808.32 235.368 808.108 234.479C807.685 232.998 806.902 231.856 805.76 231.052C804.152 229.867 801.951 229.274 799.158 229.274H796.302V226.926H868.348V252.38H865.936C864.708 246.159 862.973 241.695 860.73 238.986C858.53 236.278 855.398 234.289 851.336 233.02C848.966 232.258 844.523 231.877 838.006 231.877H829.119Z" fill="#0A0A0A"/>
<path d="M914.939 273.771V297.893C914.939 302.548 915.215 305.489 915.765 306.716C916.357 307.901 917.373 308.853 918.812 309.572C920.25 310.292 922.938 310.651 926.873 310.651V313H882.82V310.651C886.798 310.651 889.485 310.292 890.882 309.572C892.321 308.811 893.315 307.837 893.865 306.652C894.458 305.467 894.754 302.548 894.754 297.893V242.033C894.754 237.378 894.458 234.458 893.865 233.273C893.315 232.046 892.321 231.073 890.882 230.354C889.443 229.634 886.756 229.274 882.82 229.274V226.926H922.811C933.221 226.926 940.838 227.645 945.662 229.084C950.486 230.523 954.422 233.189 957.469 237.082C960.516 240.933 962.039 245.461 962.039 250.666C962.039 257.014 959.754 262.261 955.184 266.408C952.264 269.032 948.18 271 942.933 272.312L963.626 301.447C966.334 305.214 968.26 307.562 969.402 308.493C971.137 309.805 973.147 310.524 975.433 310.651V313H948.328L920.589 273.771H914.939ZM914.939 231.56V269.265H918.558C924.44 269.265 928.841 268.736 931.761 267.678C934.681 266.577 936.966 264.631 938.616 261.838C940.309 259.003 941.155 255.321 941.155 250.793C941.155 244.234 939.611 239.388 936.521 236.257C933.475 233.125 928.545 231.56 921.731 231.56H914.939Z" fill="#0A0A0A"/>
<path d="M524.466 343.333V358.038H523.328C521.954 354.018 519.893 350.962 517.145 348.871C514.397 346.779 511.393 345.733 508.132 345.733C505.015 345.733 502.42 346.615 500.349 348.378C498.278 350.122 496.812 352.562 495.95 355.7C495.089 358.837 494.658 362.057 494.658 365.359C494.658 369.358 495.13 372.865 496.073 375.879C497.017 378.894 498.534 381.109 500.626 382.524C502.738 383.939 505.24 384.646 508.132 384.646C509.137 384.646 510.162 384.544 511.208 384.339C512.274 384.113 513.361 383.795 514.469 383.385V374.71C514.469 373.07 514.356 372.014 514.13 371.542C513.905 371.05 513.433 370.609 512.715 370.219C512.018 369.83 511.167 369.635 510.162 369.635H509.085V368.497H529.357V369.635C527.819 369.737 526.743 369.953 526.127 370.281C525.533 370.588 525.071 371.111 524.743 371.85C524.559 372.239 524.466 373.193 524.466 374.71V383.385C521.8 384.575 519.021 385.467 516.13 386.062C513.259 386.677 510.275 386.984 507.178 386.984C503.22 386.984 499.929 386.451 497.304 385.385C494.699 384.298 492.392 382.883 490.382 381.14C488.393 379.376 486.834 377.397 485.707 375.203C484.271 372.373 483.553 369.204 483.553 365.697C483.553 359.422 485.758 354.121 490.167 349.793C494.576 345.466 500.124 343.303 506.809 343.303C508.88 343.303 510.747 343.467 512.408 343.795C513.31 343.959 514.766 344.431 516.776 345.21C518.806 345.969 520.006 346.348 520.375 346.348C520.949 346.348 521.482 346.143 521.975 345.733C522.467 345.302 522.918 344.502 523.328 343.333H524.466Z" fill="#6B5C4D"/>
<path d="M556.52 370.588H540.739C540.924 374.403 541.939 377.417 543.785 379.632C545.2 381.334 546.902 382.186 548.891 382.186C550.122 382.186 551.239 381.847 552.244 381.17C553.249 380.473 554.326 379.232 555.474 377.448L556.52 378.125C554.961 381.304 553.239 383.56 551.352 384.893C549.465 386.205 547.281 386.861 544.8 386.861C540.534 386.861 537.304 385.221 535.11 381.939C533.346 379.294 532.464 376.013 532.464 372.096C532.464 367.297 533.756 363.482 536.34 360.652C538.945 357.802 541.99 356.376 545.477 356.376C548.389 356.376 550.911 357.576 553.044 359.976C555.197 362.354 556.356 365.892 556.52 370.588ZM548.953 368.527C548.953 365.226 548.768 362.959 548.399 361.729C548.05 360.499 547.497 359.565 546.738 358.93C546.307 358.561 545.733 358.376 545.015 358.376C543.949 358.376 543.077 358.899 542.4 359.945C541.19 361.77 540.585 364.272 540.585 367.451V368.527H548.953Z" fill="#6B5C4D"/>
<path d="M572.085 357.238V361.021C573.665 359.299 575.121 358.099 576.454 357.422C577.807 356.725 579.284 356.376 580.883 356.376C582.729 356.376 584.277 356.807 585.528 357.668C586.779 358.53 587.743 359.842 588.42 361.606C590.061 359.76 591.629 358.427 593.126 357.607C594.644 356.787 596.223 356.376 597.864 356.376C599.853 356.376 601.432 356.838 602.601 357.761C603.791 358.663 604.611 359.822 605.062 361.237C605.534 362.631 605.77 364.867 605.77 367.943V379.725C605.77 381.939 605.964 383.313 606.354 383.847C606.764 384.38 607.605 384.729 608.876 384.893V386H594.019V384.893C595.188 384.79 596.049 384.339 596.603 383.539C596.972 382.985 597.156 381.714 597.156 379.725V367.358C597.156 364.795 597.054 363.165 596.849 362.467C596.644 361.77 596.315 361.257 595.864 360.929C595.434 360.581 594.921 360.406 594.326 360.406C593.444 360.406 592.552 360.734 591.65 361.391C590.748 362.026 589.835 362.99 588.912 364.282V379.725C588.912 381.796 589.086 383.098 589.435 383.631C589.907 384.39 590.809 384.811 592.142 384.893V386H577.253V384.893C578.053 384.852 578.679 384.657 579.13 384.308C579.602 383.939 579.909 383.508 580.053 383.016C580.217 382.503 580.299 381.406 580.299 379.725V367.358C580.299 364.754 580.196 363.124 579.991 362.467C579.786 361.811 579.438 361.298 578.945 360.929C578.474 360.56 577.961 360.375 577.407 360.375C576.587 360.375 575.838 360.591 575.162 361.021C574.198 361.657 573.172 362.744 572.085 364.282V379.725C572.085 381.755 572.28 383.098 572.67 383.754C573.08 384.39 573.921 384.77 575.192 384.893V386H560.365V384.893C561.575 384.77 562.437 384.38 562.949 383.724C563.298 383.272 563.472 381.939 563.472 379.725V363.482C563.472 361.309 563.267 359.955 562.857 359.422C562.467 358.889 561.637 358.54 560.365 358.376V357.238H572.085Z" fill="#6B5C4D"/>
<path d="M630.81 356.438L631.271 366.251H630.225C628.974 363.339 627.672 361.35 626.318 360.283C624.985 359.217 623.652 358.684 622.319 358.684C621.479 358.684 620.761 358.971 620.166 359.545C619.571 360.099 619.274 360.745 619.274 361.483C619.274 362.037 619.479 362.57 619.889 363.083C620.545 363.923 622.381 365.369 625.396 367.42C628.41 369.45 630.389 371.183 631.333 372.619C632.296 374.034 632.778 375.623 632.778 377.387C632.778 378.986 632.378 380.555 631.579 382.093C630.779 383.631 629.651 384.811 628.195 385.631C626.739 386.451 625.129 386.861 623.365 386.861C621.991 386.861 620.156 386.431 617.859 385.569C617.244 385.344 616.823 385.231 616.598 385.231C615.921 385.231 615.357 385.744 614.906 386.769H613.891L613.398 376.433H614.444C615.367 379.14 616.628 381.17 618.228 382.524C619.848 383.877 621.376 384.554 622.812 384.554C623.796 384.554 624.596 384.257 625.211 383.662C625.847 383.047 626.165 382.309 626.165 381.447C626.165 380.463 625.857 379.612 625.242 378.894C624.626 378.176 623.252 377.089 621.12 375.633C617.982 373.459 615.952 371.798 615.029 370.65C613.675 368.968 612.999 367.112 612.999 365.082C612.999 362.867 613.757 360.868 615.275 359.083C616.813 357.279 619.028 356.376 621.919 356.376C623.478 356.376 624.985 356.756 626.441 357.515C626.995 357.822 627.446 357.976 627.795 357.976C628.164 357.976 628.461 357.904 628.687 357.761C628.913 357.597 629.271 357.156 629.764 356.438H630.81Z" fill="#6B5C4D"/>
<path d="M686.673 361.052H699.47V362.252C698.034 362.457 696.906 362.888 696.086 363.544C695.266 364.18 694.199 365.677 692.887 368.035C691.574 370.394 689.729 373.029 687.35 375.941C689.441 377.828 691.144 379.14 692.456 379.878C693.379 380.391 694.281 380.647 695.163 380.647C696.681 380.647 698.055 379.653 699.285 377.664L700.546 378.34C698.865 381.642 697.07 383.99 695.163 385.385C693.707 386.431 692.046 386.954 690.18 386.954C688.58 386.954 687.052 386.615 685.596 385.938C684.161 385.241 682.407 383.949 680.336 382.062C677.772 383.785 675.363 385.036 673.107 385.815C670.851 386.574 668.503 386.954 666.062 386.954C662.166 386.954 659.069 385.897 656.772 383.785C654.476 381.673 653.327 379.191 653.327 376.341C653.327 373.265 654.424 370.588 656.619 368.312C658.813 366.036 662.002 364.067 666.186 362.406C665.652 361.073 665.252 359.771 664.986 358.499C664.719 357.228 664.586 355.997 664.586 354.808C664.586 351.526 665.734 348.799 668.031 346.625C670.349 344.431 673.302 343.333 676.891 343.333C679.782 343.333 682.069 344.062 683.75 345.518C685.453 346.953 686.304 348.635 686.304 350.562C686.304 352.88 685.432 354.869 683.689 356.53C681.966 358.171 679.229 359.678 675.476 361.052C677.793 365.133 681.187 369.532 685.658 374.249C688.672 370.865 690.18 367.963 690.18 365.543C690.18 364.682 689.882 363.954 689.288 363.359C688.693 362.744 687.821 362.375 686.673 362.252V361.052ZM674.43 359.207C676.583 358.407 678.029 357.556 678.767 356.653C679.505 355.73 679.875 354.623 679.875 353.331C679.875 351.034 679.27 349.096 678.06 347.517C677.26 346.471 676.275 345.948 675.106 345.948C674.143 345.948 673.312 346.328 672.615 347.086C671.938 347.845 671.6 348.871 671.6 350.163C671.6 351.167 671.764 352.244 672.092 353.393C672.42 354.541 673.199 356.479 674.43 359.207ZM667.047 364.375C665.406 365.072 664.248 365.81 663.571 366.589C662.607 367.738 662.125 369.02 662.125 370.435C662.125 372.362 662.679 374.28 663.786 376.187C664.914 378.094 666.268 379.571 667.847 380.617C669.426 381.663 671.005 382.186 672.584 382.186C673.363 382.186 674.235 382.021 675.199 381.693C676.183 381.345 677.25 380.832 678.398 380.155C673.456 375.09 669.672 369.83 667.047 364.375Z" fill="#6B5C4D"/>
<path d="M727.986 345.425V344.287H750.165V345.425H748.812C747.581 345.425 746.597 345.641 745.858 346.071C745.346 346.358 744.936 346.851 744.628 347.548C744.402 348.04 744.29 349.332 744.29 351.424V371.85C744.29 375.849 743.89 378.761 743.09 380.586C742.29 382.391 740.865 383.908 738.814 385.139C736.784 386.349 734.333 386.954 731.462 386.954C727.955 386.954 725.115 386.031 722.941 384.185C720.788 382.339 719.711 380.299 719.711 378.063C719.711 376.628 720.152 375.469 721.034 374.587C721.916 373.685 722.992 373.234 724.264 373.234C725.515 373.234 726.561 373.634 727.401 374.434C728.263 375.233 728.693 376.218 728.693 377.387C728.693 377.961 728.622 378.463 728.478 378.894C728.396 379.099 728.068 379.622 727.494 380.463C726.94 381.283 726.663 381.868 726.663 382.216C726.663 382.75 726.93 383.211 727.463 383.601C728.242 384.175 729.257 384.462 730.508 384.462C731.39 384.462 732.118 384.236 732.692 383.785C733.267 383.334 733.667 382.637 733.892 381.693C734.138 380.729 734.261 378.074 734.261 373.726V351.424C734.261 349.291 734.138 347.958 733.892 347.425C733.667 346.892 733.205 346.43 732.508 346.041C731.831 345.63 730.908 345.425 729.739 345.425H727.986Z" fill="#6B5C4D"/>
<path d="M777.02 370.588H761.239C761.424 374.403 762.439 377.417 764.285 379.632C765.7 381.334 767.402 382.186 769.391 382.186C770.622 382.186 771.739 381.847 772.744 381.17C773.749 380.473 774.826 379.232 775.974 377.448L777.02 378.125C775.461 381.304 773.739 383.56 771.852 384.893C769.965 386.205 767.781 386.861 765.3 386.861C761.034 386.861 757.804 385.221 755.61 381.939C753.846 379.294 752.964 376.013 752.964 372.096C752.964 367.297 754.256 363.482 756.84 360.652C759.445 357.802 762.49 356.376 765.977 356.376C768.889 356.376 771.411 357.576 773.544 359.976C775.697 362.354 776.856 365.892 777.02 370.588ZM769.453 368.527C769.453 365.226 769.268 362.959 768.899 361.729C768.55 360.499 767.997 359.565 767.238 358.93C766.807 358.561 766.233 358.376 765.515 358.376C764.449 358.376 763.577 358.899 762.9 359.945C761.69 361.77 761.085 364.272 761.085 367.451V368.527H769.453Z" fill="#6B5C4D"/>
<path d="M809.166 386.861L801.291 365.759L793.57 386.861H791.97L784.311 366.005C783.162 362.826 782.188 360.755 781.388 359.791C780.875 359.135 780.096 358.663 779.05 358.376V357.238H793.57V358.376C792.585 358.376 791.909 358.52 791.54 358.807C791.17 359.094 790.986 359.422 790.986 359.791C790.986 360.14 791.314 361.186 791.97 362.929L796.185 374.157L800.245 362.929L799.938 362.19C799.322 360.652 798.779 359.678 798.307 359.268C797.856 358.837 797.148 358.54 796.185 358.376V357.238H810.919V358.376C809.771 358.438 809.043 358.602 808.735 358.868C808.428 359.114 808.274 359.473 808.274 359.945C808.274 360.396 808.571 361.391 809.166 362.929L813.227 374.157L816.918 363.821C817.451 362.344 817.718 361.339 817.718 360.806C817.718 360.006 817.523 359.422 817.133 359.053C816.744 358.684 815.985 358.458 814.857 358.376V357.238H823.378V358.376C822.435 358.499 821.686 358.837 821.132 359.391C820.579 359.924 819.861 361.462 818.979 364.005L810.919 386.861H809.166Z" fill="#6B5C4D"/>
<path d="M850.541 370.588H834.76C834.944 374.403 835.959 377.417 837.805 379.632C839.22 381.334 840.922 382.186 842.912 382.186C844.142 382.186 845.26 381.847 846.265 381.17C847.27 380.473 848.346 379.232 849.495 377.448L850.541 378.125C848.982 381.304 847.259 383.56 845.373 384.893C843.486 386.205 841.302 386.861 838.82 386.861C834.555 386.861 831.325 385.221 829.13 381.939C827.367 379.294 826.485 376.013 826.485 372.096C826.485 367.297 827.777 363.482 830.361 360.652C832.965 357.802 836.011 356.376 839.497 356.376C842.409 356.376 844.932 357.576 847.064 359.976C849.218 362.354 850.376 365.892 850.541 370.588ZM842.973 368.527C842.973 365.226 842.789 362.959 842.419 361.729C842.071 360.499 841.517 359.565 840.758 358.93C840.328 358.561 839.753 358.376 839.036 358.376C837.969 358.376 837.098 358.899 836.421 359.945C835.211 361.77 834.606 364.272 834.606 367.451V368.527H842.973Z" fill="#6B5C4D"/>
<path d="M865.429 344.287V380.032C865.429 382.062 865.665 383.365 866.137 383.939C866.608 384.493 867.531 384.811 868.905 384.893V386H853.371V384.893C854.642 384.852 855.585 384.482 856.201 383.785C856.611 383.313 856.816 382.062 856.816 380.032V350.255C856.816 348.245 856.58 346.963 856.108 346.41C855.637 345.835 854.724 345.507 853.371 345.425V344.287H865.429Z" fill="#6B5C4D"/>
<path d="M882.963 344.287V380.032C882.963 382.062 883.199 383.365 883.671 383.939C884.143 384.493 885.065 384.811 886.439 384.893V386H870.905V384.893C872.176 384.852 873.12 384.482 873.735 383.785C874.145 383.313 874.35 382.062 874.35 380.032V350.255C874.35 348.245 874.114 346.963 873.643 346.41C873.171 345.835 872.258 345.507 870.905 345.425V344.287H882.963Z" fill="#6B5C4D"/>
<path d="M913.602 370.588H897.821C898.006 374.403 899.021 377.417 900.867 379.632C902.282 381.334 903.984 382.186 905.973 382.186C907.204 382.186 908.321 381.847 909.326 381.17C910.331 380.473 911.408 379.232 912.556 377.448L913.602 378.125C912.043 381.304 910.321 383.56 908.434 384.893C906.547 386.205 904.363 386.861 901.882 386.861C897.616 386.861 894.386 385.221 892.192 381.939C890.428 379.294 889.546 376.013 889.546 372.096C889.546 367.297 890.838 363.482 893.422 360.652C896.027 357.802 899.072 356.376 902.559 356.376C905.471 356.376 907.993 357.576 910.126 359.976C912.279 362.354 913.438 365.892 913.602 370.588ZM906.035 368.527C906.035 365.226 905.85 362.959 905.481 361.729C905.132 360.499 904.579 359.565 903.82 358.93C903.389 358.561 902.815 358.376 902.097 358.376C901.031 358.376 900.159 358.899 899.482 359.945C898.272 361.77 897.667 364.272 897.667 367.451V368.527H906.035Z" fill="#6B5C4D"/>
<path d="M929.167 357.238V363.759C931.075 360.786 932.746 358.817 934.182 357.853C935.617 356.869 937.001 356.376 938.334 356.376C939.483 356.376 940.396 356.735 941.072 357.453C941.77 358.15 942.118 359.145 942.118 360.437C942.118 361.811 941.78 362.877 941.103 363.636C940.447 364.395 939.647 364.774 938.704 364.774C937.617 364.774 936.673 364.426 935.874 363.729C935.074 363.031 934.602 362.642 934.458 362.56C934.253 362.437 934.018 362.375 933.751 362.375C933.156 362.375 932.592 362.601 932.059 363.052C931.218 363.749 930.583 364.744 930.152 366.036C929.496 368.025 929.167 370.219 929.167 372.619V379.232L929.198 380.955C929.198 382.124 929.27 382.873 929.414 383.201C929.66 383.754 930.019 384.165 930.49 384.431C930.982 384.677 931.803 384.831 932.951 384.893V386H917.417V384.893C918.667 384.79 919.508 384.452 919.939 383.877C920.39 383.283 920.616 381.734 920.616 379.232V363.329C920.616 361.688 920.534 360.642 920.37 360.191C920.165 359.617 919.867 359.196 919.478 358.93C919.088 358.663 918.401 358.479 917.417 358.376V357.238H929.167Z" fill="#6B5C4D"/>
<path d="M958.422 387.169L949.132 365.851C947.737 362.631 946.702 360.652 946.025 359.914C945.369 359.176 944.569 358.663 943.625 358.376V357.238H958.914V358.376C957.909 358.417 957.202 358.612 956.792 358.96C956.381 359.309 956.176 359.729 956.176 360.222C956.176 361.001 956.689 362.539 957.714 364.836L962.636 376.095L965.989 367.389C967.199 364.292 967.804 362.139 967.804 360.929C967.804 360.17 967.548 359.565 967.035 359.114C966.543 358.663 965.661 358.417 964.39 358.376V357.238H974.018V358.376C973.075 358.479 972.306 358.848 971.711 359.483C971.116 360.099 970.122 362.221 968.727 365.851L960.514 387.169C958.442 392.501 956.904 395.782 955.899 397.013C954.484 398.735 952.71 399.597 950.578 399.597C948.875 399.597 947.491 399.104 946.425 398.12C945.379 397.156 944.856 395.987 944.856 394.613C944.856 393.424 945.215 392.439 945.933 391.66C946.671 390.881 947.573 390.491 948.64 390.491C949.665 390.491 950.485 390.819 951.101 391.476C951.736 392.132 952.064 393.147 952.085 394.521C952.105 395.3 952.198 395.803 952.362 396.028C952.526 396.254 952.762 396.367 953.069 396.367C953.562 396.367 954.084 396.069 954.638 395.475C955.458 394.613 956.422 392.645 957.53 389.568L958.422 387.169Z" fill="#6B5C4D"/>
<defs>
<clipPath id="clip0_2_5">
<rect width="315" height="402" fill="white" transform="translate(16 16)"/>
</clipPath>
</defs>
</svg>
